<svg width="39" height="43" viewBox="0 0 39 43" fill="none" xmlns="http://www.w3.org/2000/svg">
<path d="M25.1586 33.5C25.3797 34.1256 25.5 34.7987 25.5 35.5C25.5 38.8137 22.8137 41.5 19.5 41.5C16.1863 41.5 13.5 38.8137 13.5 35.5C13.5 34.7987 13.6203 34.1256 13.8414 33.5" stroke="currentColor" stroke-width="3"/>
<path d="M17.9722 23.5C18.9223 24.5615 19.5 25.9633 19.5 27.5C19.5 30.8137 16.8137 33.5 13.5 33.5C10.1863 33.5 7.5 30.8137 7.5 27.5C7.5 25.9633 8.07771 24.5615 9.02779 23.5" stroke="currentColor" stroke-width="3"/>
<path d="M29.9722 23.5C30.9223 24.5615 31.5 25.9633 31.5 27.5C31.5 30.8137 28.8137 33.5 25.5 33.5C22.1863 33.5 19.5 30.8137 19.5 27.5C19.5 25.9633 20.0777 24.5615 21.0278 23.5" stroke="currentColor" stroke-width="3"/>
<path d="M25.5 17.5C25.5 20.8137 28.1863 23.5 31.5 23.5C34.8137 23.5 37.5 20.8137 37.5 17.5C37.5 14.1863 34.8137 11.5 31.5 11.5C28.1863 11.5 25.5 14.1863 25.5 17.5Z" stroke="currentColor" stroke-width="3"/>
<path d="M13.5 17.5C13.5 20.8137 16.1863 23.5 19.5 23.5C22.8137 23.5 25.5 20.8137 25.5 17.5C25.5 14.1863 22.8137 11.5 19.5 11.5C16.1863 11.5 13.5 14.1863 13.5 17.5Z" stroke="currentColor" stroke-width="3"/>
<path d="M1.5 17.5C1.5 20.8137 4.18629 23.5 7.5 23.5C10.8137 23.5 13.5 20.8137 13.5 17.5C13.5 14.1863 10.8137 11.5 7.5 11.5C4.18629 11.5 1.5 14.1863 1.5 17.5Z" stroke="currentColor" stroke-width="3"/>
<path d="M19.5 11.5C19.5 8.16667 21.1 1.5 27.5 1.5" stroke="currentColor" stroke-width="3" stroke-linecap="round" stroke-linejoin="round"/>
</svg>
