<svg width="31" height="43" viewBox="0 0 31 43" fill="none" xmlns="http://www.w3.org/2000/svg">
<path d="M27.5 15.5004L24.5436 34.3276C24.0456 37.4989 23.7967 39.0845 22.6728 40.0291C20.2729 42.0463 10.594 41.9345 8.32715 40.0291C7.20334 39.0845 6.95435 37.4989 6.45638 34.3276L3.5 15.5004" stroke="#141B34" stroke-width="3" stroke-linecap="round"/>
<path d="M3.5 15.5004L4.52887 12.9282C6.32333 8.44205 10.6683 5.50038 15.5 5.50038C20.3317 5.50038 24.6767 8.44205 26.4711 12.9282L27.5 15.5004" stroke="#141B34" stroke-width="3"/>
<path d="M1.5 15.5004H29.5" stroke="#141B34" stroke-width="3" stroke-linecap="round"/>
<path d="M17.5 15.5004L23.5 1.50038" stroke="#141B34" stroke-width="3" stroke-linecap="round"/>
<path d="M11.5179 30.5004H11.5M19.5 33.5004H19.4821M17.5225 25.5004H17.5046" stroke="#141B34" stroke-width="4" stroke-linecap="round" stroke-linejoin="round"/>
</svg>
