<svg width="43" height="43" viewBox="0 0 43 43" fill="none" xmlns="http://www.w3.org/2000/svg">
<path d="M28.6822 9.00404C31.8562 10.2101 33.9587 14.7047 31.3427 18.0451C30.4541 19.1798 29.1498 19.9977 27.6463 20.2905M31.3427 18.0451C35.2075 18.0453 39.7208 23.0964 36.2714 27.5M15.5 19.3494C14.0384 18.206 12.1894 17.8438 10.4989 18.1442C6.9223 18.7797 3.66674 23.6282 6.69969 27.5M25.182 13.3179C27.2495 11.9959 28.3534 10.489 28.6822 9.00404C29.5291 5.17926 25.2341 1.5 19.0212 1.5C20.6943 2.56982 21.2736 3.88177 21.216 5.10706C20.9143 11.524 8.84854 7.96045 10.4989 18.1442" stroke="#141B34" stroke-width="3" stroke-linecap="round" stroke-linejoin="round"/>
<path d="M3.5 27.5L5.15622 32.9747C6.39879 37.0821 7.02007 39.1358 8.6127 40.3179C10.2053 41.5 12.3509 41.5 16.6421 41.5H26.3579C30.6491 41.5 32.7947 41.5 34.3873 40.3179C35.9799 39.1358 36.6012 37.0821 37.8438 32.9747L39.5 27.5" stroke="#141B34" stroke-width="3" stroke-linecap="round"/>
<path d="M1.5 27.5H41.5" stroke="#141B34" stroke-width="3" stroke-linecap="round"/>
</svg>
