<svg width="43" height="43" viewBox="0 0 43 43" fill="none" xmlns="http://www.w3.org/2000/svg">
<path d="M7.6169 20.9842C11.454 21.4561 14.962 18.6069 15.4523 14.6204C15.9426 10.6338 11.3775 6.79169 13.0358 1.5C4.82929 2.68897 2.00088 9.30226 1.55701 12.9114C1.06671 16.898 3.77982 20.5123 7.6169 20.9842Z" stroke="currentColor" stroke-width="3" stroke-linejoin="round"/>
<path d="M11.4998 37.5C7.65048 28.1483 7.03959 19.8883 7.76526 13.5" stroke="currentColor" stroke-width="3" stroke-linecap="round" stroke-linejoin="round"/>
<path d="M16.5155 32.8363C18.8653 37.6205 24.5409 38.9398 29.1923 35.783C33.8437 32.6263 34.5754 23.8797 41.4998 20.8303C34.1106 12.6449 24.894 15.6 20.6829 18.4579C16.0315 21.6146 14.1657 28.0521 16.5155 32.8363Z" stroke="currentColor" stroke-width="3" stroke-linejoin="round"/>
<path d="M9.49976 41.5C14.2553 33.3089 20.0285 28.36 25.4998 25.5" stroke="currentColor" stroke-width="3" stroke-linecap="round" stroke-linejoin="round"/>
</svg>
