<svg width="43" height="41" viewBox="0 0 43 41" fill="none" xmlns="http://www.w3.org/2000/svg">
<path d="M34.0013 17.5002H36.7808C40.4837 17.5002 41.5844 18.0312 41.4953 20.6678C41.3477 25.035 39.3783 30.1095 31.5002 31.5002" stroke="currentColor" stroke-width="3" stroke-linecap="round"/>
<path d="M9.39278 37.7291C2.64395 32.5403 1.64961 25.1803 1.5031 17.5004C1.43982 14.1828 2.40277 13.5002 6.81862 13.5002H28.1819C32.5977 13.5002 33.5607 14.1828 33.4974 17.5004C33.3509 25.1803 32.3565 32.5403 25.6077 37.7291C23.6871 39.2058 22.0665 39.5002 19.339 39.5002H15.6615C12.934 39.5002 11.3134 39.2058 9.39278 37.7291Z" stroke="currentColor" stroke-width="3" stroke-linecap="round"/>
<path d="M20.1181 1.50021C19.0245 2.17743 17.5027 4.50021 17.5027 7.50021M12.5797 4.50021C12.5797 4.50021 11.5002 5.50021 11.5002 7.50021M25.5027 4.50021C24.956 4.83882 24.5002 6.50021 24.5002 7.50021" stroke="currentColor" stroke-width="3" stroke-linecap="round" stroke-linejoin="round"/>
</svg>
