<svg width="48" height="48" viewBox="0 0 48 48" fill="none" xmlns="http://www.w3.org/2000/svg">
<path d="M10.3431 13.6569L14 10L17.6569 13.6569C18.813 14.813 19.391 15.391 19.6955 16.1261C20 16.8612 20 17.6787 20 19.3137V44H16C12.2288 44 10.3431 44 9.17157 42.8284C8 41.6569 8 39.7712 8 36V19.3137C8 17.6787 8 16.8612 8.30448 16.1261C8.60896 15.391 9.18702 14.813 10.3431 13.6569Z" stroke="#141B34" stroke-width="3"/>
<path d="M14 10.0076V9.20859C14 6.76038 14 5.53627 14.7615 4.77571C15.523 4.01515 16.7487 4.01515 19.2 4.01515H30.307C31.7199 4.01515 33.553 3.78979 34.4974 5.07732C35.5005 6.44486 34.6431 8.32421 35.0777 9.8357C35.2098 10.2953 35.5362 10.6502 35.8367 11.0104L40 16" stroke="#141B34" stroke-width="3" stroke-linecap="round"/>
<path d="M20 16H40V36C40 39.7712 40 41.6569 38.8284 42.8284C37.6569 44 35.7712 44 32 44H20" stroke="#141B34" stroke-width="3" stroke-linejoin="round"/>
<path d="M20 26C20.9524 27 23.4868 26.9521 24.9739 26.5578C26.0108 26.2829 27.1279 26.6054 27.8307 27.5279L29.205 29.3316C29.9955 30.3692 31.1938 30.8619 32.3742 30.6346L34.1135 30.2998C35.0703 30.1156 36.0221 30.5807 36.6734 31.4111C38.7043 34 40 34 40 34" stroke="#141B34" stroke-width="3" stroke-linejoin="round"/>
</svg>
