<svg width="43" height="41" viewBox="0 0 43 41" fill="none" xmlns="http://www.w3.org/2000/svg">
<path d="M34.0013 17.5002H36.7808C40.4837 17.5002 41.5844 18.0313 41.4953 20.6678C41.3477 25.035 39.3783 30.1096 31.5002 31.5002" stroke="currentColor" stroke-width="3" stroke-linecap="round"/>
<path d="M9.39278 37.7292C2.64395 32.5403 1.64961 25.1804 1.5031 17.5005C1.43982 14.1828 2.40277 13.5002 6.81862 13.5002H28.1819C32.5977 13.5002 33.5607 14.1828 33.4974 17.5005C33.3509 25.1804 32.3565 32.5403 25.6077 37.7292C23.6871 39.2058 22.0665 39.5002 19.339 39.5002H15.6615C12.934 39.5002 11.3134 39.2058 9.39278 37.7292Z" stroke="currentColor" stroke-width="3" stroke-linecap="round"/>
<path d="M17.5002 13.5002V23.5002M14.5087 29.0935L15.0926 25.3905C15.2636 24.3059 16.2887 23.5002 17.4979 23.5002C18.7071 23.5002 19.7323 24.3059 19.9033 25.3905L20.4871 29.0935C20.8018 31.089 14.2325 30.8454 14.5087 29.0935Z" stroke="currentColor" stroke-width="3" stroke-linecap="round" stroke-linejoin="round"/>
<path d="M20.1181 1.50024C19.0245 2.17746 17.5027 4.50024 17.5027 7.50024M12.5797 4.50024C12.5797 4.50024 11.5002 5.50024 11.5002 7.50024M25.5027 4.50024C24.956 4.83885 24.5002 6.50024 24.5002 7.50024" stroke="currentColor" stroke-width="3" stroke-linecap="round" stroke-linejoin="round"/>
</svg>
